<?xml version="1.0" encoding="UTF-8"?>
<svg width="21.818mm" height="9.9998mm" version="1.1" viewBox="0 0 21.818 9.9998" xmlns="http://www.w3.org/2000/svg">
<g transform="matrix(.12121 0 0 .12121 -12.831 -1.3733)" fill="#fff" fill-rule="evenodd">
<circle cx="115.86" cy="83.83" r="10" stroke-width=".65044"/>
<circle cx="155.86" cy="83.83" r="10" stroke-width=".65044"/>
<circle cx="195.86" cy="83.83" r="10" stroke-width=".65044"/>
<circle cx="235.86" cy="83.83" r="10" stroke-width=".65044"/>
<circle cx="275.86" cy="83.83" r="10" stroke-width=".65044"/>
<circle cx="117.11" cy="48.83" r="7.5" stroke-width=".48783"/>
<circle cx="158.36" cy="48.83" r="7.5" stroke-width=".48783"/>
<circle cx="196.86" cy="48.83" r="7.5" stroke-width=".48783"/>
<circle cx="236.36" cy="48.83" r="7.5" stroke-width=".48783"/>
<circle cx="275.86" cy="48.83" r="7.5" stroke-width=".48783"/>
<circle cx="118.65" cy="23.83" r="5" stroke-width=".32522"/>
<circle cx="159" cy="23.83" r="5" stroke-width=".32522"/>
<circle cx="197.51" cy="23.83" r="5" stroke-width=".32522"/>
<circle cx="235.21" cy="23.83" r="5" stroke-width=".32522"/>
<circle cx="274.39" cy="23.83" r="5" stroke-width=".32522"/>
<circle cx="137.11" cy="65.08" r="8.75" stroke-width=".56914"/>
<circle cx="177.11" cy="65.08" r="8.75" stroke-width=".56914"/>
<circle cx="217.11" cy="65.08" r="8.75" stroke-width=".56914"/>
<circle cx="257.11" cy="65.08" r="8.75" stroke-width=".56914"/>
<circle cx="137.98" cy="35.08" r="6.25" stroke-width=".40653"/>
<circle cx="176.93" cy="35.08" r="6.25" stroke-width=".40653"/>
<circle cx="218.35" cy="35.08" r="6.25" stroke-width=".40653"/>
<circle cx="256.31" cy="35.08" r="6.25" stroke-width=".40653"/>
<circle cx="138.72" cy="15.08" r="3.75" stroke-width=".24392"/>
<circle cx="177.4" cy="15.08" r="3.75" stroke-width=".24392"/>
<circle cx="217.57" cy="15.08" r="3.75" stroke-width=".24392"/>
<circle cx="257.15" cy="15.08" r="3.75" stroke-width=".24392"/>
</g>
</svg>
